<svg version="1.0" preserveAspectRatio="xMidYMid meet" viewBox="145.07174999999998 148.071746446278 83.211 74.98439820037441" zoomAndPan="magnify" xmlns:xlink="http://www.w3.org/1999/xlink" xmlns="http://www.w3.org/2000/svg" style="max-height: 500px" width="83.211" height="74.98439820037441"><defs><clipPath id="1a48d4ef3f"><path clip-rule="nonzero" d="M 159.796875 158 L 181 158 L 181 173.589844 L 159.796875 173.589844 Z M 159.796875 158"/></clipPath><clipPath id="89d8f5cc45"><path clip-rule="nonzero" d="M 175 159 L 186 159 L 186 173.589844 L 175 173.589844 Z M 175 159"/></clipPath><clipPath id="8bec46b6a6"><path clip-rule="nonzero" d="M 181 150.238281 L 190.335938 150.238281 L 190.335938 173.589844 L 181 173.589844 Z M 181 150.238281"/></clipPath></defs><path fill-rule="nonzero" fill-opacity="1" d="M 203.9375 167.558594 C 212.90625 164.273438 219.652344 163.78125 221.710938 166.875 C 225.445312 172.480469 212.382812 187.738281 192.539062 200.953125 C 172.691406 214.171875 153.574219 220.339844 149.84375 214.734375 C 147.78125 211.640625 150.839844 205.605469 157.328125 198.597656 C 148.765625 207.238281 144.515625 214.839844 147 218.566406 C 151.121094 224.757812 172.222656 217.945312 194.136719 203.355469 C 216.046875 188.761719 230.46875 171.917969 226.347656 165.726562 C 223.863281 162 215.214844 162.992188 203.9375 167.558594" fill="#3d55cc"/><path fill-rule="nonzero" fill-opacity="1" d="M 200.527344 173.871094 C 206.226562 171.988281 210.453125 171.847656 211.820312 173.898438 C 213.300781 176.125 211.101562 180.460938 206.4375 185.503906 C 212.59375 179.289062 215.652344 173.824219 213.863281 171.140625 C 212.289062 168.773438 207.257812 169.050781 200.527344 171.410156 L 200.527344 173.871094" fill="#dadef2"/><path fill-rule="nonzero" fill-opacity="1" d="M 160.136719 208.316406 C 159.34375 207.125 159.605469 205.324219 160.738281 203.136719 C 159.964844 202.5625 159.324219 201.894531 158.832031 201.160156 C 156.496094 204.597656 155.667969 207.433594 156.804688 209.140625 C 158.59375 211.820312 164.8125 211.109375 172.921875 207.820312 C 166.472656 210.183594 161.621094 210.539062 160.136719 208.316406" fill="#dadef2"/><path fill-rule="nonzero" fill-opacity="1" d="M 163.445312 192.078125 C 163.984375 191.820312 164.554688 191.894531 164.722656 192.242188 C 164.890625 192.589844 164.589844 193.082031 164.050781 193.339844 C 163.515625 193.597656 162.945312 193.523438 162.777344 193.175781 C 162.609375 192.828125 162.910156 192.335938 163.445312 192.078125 Z M 167.878906 190.285156 C 169.21875 190.117188 170.371094 190.472656 170.445312 191.082031 C 170.519531 191.6875 169.496094 192.316406 168.152344 192.480469 C 166.808594 192.648438 165.660156 192.292969 165.585938 191.6875 C 165.507812 191.082031 166.535156 190.453125 167.878906 190.285156 Z M 169.867188 203.914062 C 174.820312 203.179688 178.523438 199.890625 178.675781 196.3125 L 178.675781 178.28125 L 186.574219 189.304688 L 194.710938 176.996094 L 194.710938 197.960938 C 196.277344 196.867188 197.800781 195.757812 199.277344 194.636719 L 199.277344 167.773438 L 194.710938 167.773438 L 186.300781 184.921875 L 178.675781 175.613281 L 174.109375 175.613281 L 174.109375 190.25 C 172.28125 189.515625 170.058594 189.242188 167.738281 189.589844 C 162.316406 190.394531 158.398438 194.253906 158.988281 198.210938 C 159.578125 202.167969 164.445312 204.71875 169.867188 203.914062" fill="#ffffff"/><path fill-rule="nonzero" fill-opacity="1" d="M 209.027344 204.738281 C 208.914062 205.105469 208.363281 205.265625 207.792969 205.089844 C 207.222656 204.917969 206.851562 204.476562 206.964844 204.105469 C 207.078125 203.738281 207.632812 203.578125 208.199219 203.753906 C 208.769531 203.925781 209.140625 204.367188 209.027344 204.738281 Z M 203.609375 204.863281 C 202.257812 204.902344 201.148438 204.4375 201.132812 203.824219 C 201.113281 203.214844 202.195312 202.6875 203.546875 202.652344 C 204.902344 202.613281 206.011719 203.078125 206.027344 203.691406 C 206.042969 204.300781 204.960938 204.828125 203.609375 204.863281 Z M 205.648438 202.109375 C 203.324219 201.765625 201.105469 202.039062 199.277344 202.773438 L 199.277344 201.328125 C 197.824219 202.363281 196.339844 203.386719 194.828125 204.394531 C 194.789062 204.417969 194.75 204.445312 194.710938 204.46875 L 194.710938 208.835938 C 194.863281 212.414062 198.566406 215.699219 203.519531 216.4375 C 208.9375 217.242188 213.808594 214.6875 214.398438 210.734375 C 214.984375 206.777344 211.070312 202.917969 205.648438 202.109375" fill="#ffffff"/><g clip-path="url(#1a48d4ef3f)"><path fill-rule="nonzero" fill-opacity="1" d="M 172.273438 165.207031 C 170.96875 163.8125 169.648438 162.425781 168.253906 161.097656 C 167.582031 160.464844 166.90625 159.808594 166.167969 159.226562 C 165.546875 158.746094 164.960938 158.886719 164.472656 159.429688 C 162.867188 161.210938 161.421875 163.136719 159.90625 164.984375 C 159.796875 165.117188 159.929688 165.269531 160.0625 165.320312 C 163.5625 166.632812 167.066406 167.9375 170.5625 169.253906 C 173.785156 170.46875 177.003906 171.753906 179.859375 173.582031 C 179.960938 173.652344 180.066406 173.632812 180.144531 173.566406 C 180.386719 173.757812 180.75 173.4375 180.5 173.238281 C 177.464844 170.820312 174.882812 167.992188 172.273438 165.207031 Z M 172.273438 165.207031" fill="#3d55cc"/></g><g clip-path="url(#89d8f5cc45)"><path fill-rule="nonzero" fill-opacity="1" d="M 184.875 172.730469 C 184.902344 172.683594 184.917969 172.625 184.902344 172.5625 C 183.820312 168.207031 182.769531 163.855469 181.742188 159.492188 C 181.707031 159.351562 181.496094 159.277344 181.367188 159.351562 C 179.65625 160.378906 177.910156 161.34375 176.117188 162.242188 C 176.007812 162.296875 175.941406 162.457031 176.027344 162.554688 C 178.9375 166.066406 181.792969 169.605469 184.601562 173.171875 C 184.792969 173.40625 185.238281 173.183594 185.050781 172.941406 C 184.988281 172.871094 184.929688 172.800781 184.875 172.730469 Z M 184.875 172.730469" fill="#3d55cc"/></g><g clip-path="url(#8bec46b6a6)"><path fill-rule="nonzero" fill-opacity="1" d="M 190.261719 152.128906 C 190.253906 151.746094 190.296875 151.28125 190.144531 150.917969 C 189.859375 150.238281 189.082031 150.351562 188.496094 150.441406 C 186.082031 150.824219 183.675781 151.222656 181.261719 151.609375 C 181.136719 151.628906 181.03125 151.808594 181.078125 151.929688 C 182.53125 155.472656 183.988281 159.019531 185.433594 162.5625 C 186.792969 165.890625 188.09375 169.269531 188.691406 172.84375 C 188.714844 172.976562 188.804688 173.03125 188.910156 173.03125 C 188.9375 173.359375 189.4375 173.359375 189.417969 173.023438 C 189.144531 168.726562 189.578125 164.425781 189.921875 160.140625 C 190.089844 158.011719 190.234375 155.886719 190.261719 153.75 C 190.277344 153.210938 190.277344 152.667969 190.261719 152.128906 Z M 190.261719 152.128906" fill="#3d55cc"/></g></svg>